<?xml version="1.0" encoding="UTF-8" standalone="no"?>
<!-- Created with Inkscape (http://www.inkscape.org/) -->

<svg
   xmlns:dc="http://purl.org/dc/elements/1.1/"
   xmlns:cc="http://creativecommons.org/ns#"
   xmlns:rdf="http://www.w3.org/1999/02/22-rdf-syntax-ns#"
   xmlns:svg="http://www.w3.org/2000/svg"
   xmlns="http://www.w3.org/2000/svg"
   xmlns:sodipodi="http://sodipodi.sourceforge.net/DTD/sodipodi-0.dtd"
   xmlns:inkscape="http://www.inkscape.org/namespaces/inkscape"
   id="svg2876"
   version="1.1"
   inkscape:version="0.47 r22583"
   width="400"
   height="400"
   sodipodi:docname="sdrbot.svg">
  <metadata
     id="metadata2882">
    <rdf:RDF>
      <cc:Work
         rdf:about="">
        <dc:format>image/svg+xml</dc:format>
        <dc:type
           rdf:resource="http://purl.org/dc/dcmitype/StillImage" />
        <dc:title></dc:title>
      </cc:Work>
    </rdf:RDF>
  </metadata>
  <defs
     id="defs2880">
    <inkscape:perspective
       sodipodi:type="inkscape:persp3d"
       inkscape:vp_x="0 : 0.5 : 1"
       inkscape:vp_y="0 : 1000 : 0"
       inkscape:vp_z="1 : 0.5 : 1"
       inkscape:persp3d-origin="0.5 : 0.33333333 : 1"
       id="perspective2884" />
  </defs>
  <sodipodi:namedview
     pagecolor="#ffffff"
     bordercolor="#666666"
     borderopacity="1"
     objecttolerance="10"
     gridtolerance="10"
     guidetolerance="10"
     inkscape:pageopacity="0"
     inkscape:pageshadow="2"
     inkscape:window-width="1155"
     inkscape:window-height="623"
     id="namedview2878"
     showgrid="false"
     inkscape:zoom="0.59"
     inkscape:cx="200"
     inkscape:cy="196.61017"
     inkscape:window-x="0"
     inkscape:window-y="25"
     inkscape:window-maximized="0"
     inkscape:current-layer="svg2876" />
  <g
     id="g2888"
     transform="translate(1.6949131,-3.3898305)">
    <path
       style="fill:#fdfdfd"
       d="M 0,200 0,0 l 200,0 200,0 0,200 0,200 -200,0 -200,0 0,-200 z"
       id="path2904" />
    <path
       style="fill:#d1d1d1"
       d="m 220.13174,290.97253 c -2.40255,-0.49974 -6.32027,-1.85357 -8.70605,-3.0085 -15.93826,-7.71558 -22.13369,-34.89584 -12.44163,-54.58322 5.56425,-11.3026 14.86402,-16.77103 28.51594,-16.76791 15.29741,0.004 25.04983,6.77345 30.60054,21.24228 3.08787,8.04904 3.08787,24.2406 0,32.28964 -3.94127,10.27358 -10.02304,16.60647 -18.86058,19.63935 -4.79931,1.64704 -14.11713,2.22652 -19.10822,1.18836 z m 15.97038,-15.26123 c 1.86883,-1.25879 4.52288,-4.29629 5.89788,-6.75 2.22468,-3.96999 2.5,-5.61765 2.5,-14.9613 0,-9.34365 -0.27532,-10.99131 -2.5,-14.9613 C 238.57121,232.91996 233.98469,230 227.80246,230 c -11.51062,0 -17.79131,8.47248 -17.79131,24 0,15.4718 6.24294,23.98795 17.59097,23.99626 3.66472,0.003 6.05938,-0.64104 8.5,-2.28496 z M 114.68,288.53714 C 113.15717,287.01431 113,282.70746 113,242.5 c 0,-38.99134 0.19009,-44.54724 1.57143,-45.92857 1.29975,-1.29975 4.36851,-1.57012 17.75,-1.56388 19.18451,0.009 27.38091,1.16135 34.04062,4.78602 12.37131,6.73331 15.26451,24.81517 5.5284,34.55127 l -3.86896,3.86896 4.9172,4.42098 c 6.20602,5.57975 8.6043,11.40841 8.44479,20.52377 -0.20639,11.79329 -5.78282,19.50134 -17.38348,24.02837 -4.8349,1.88677 -8.04796,2.19977 -26.57,2.58827 -18.76982,0.3937 -21.25341,0.25855 -22.75,-1.23805 z m 42.83022,-13.97696 c 4.85617,-2.02904 7.4823,-6.78838 7.4823,-13.56018 0,-6.7718 -2.62613,-11.53114 -7.4823,-13.56018 C 155.13318,246.44663 150.17677,246 141.53212,246 L 129,246 l 0,15 0,15 12.53212,0 c 8.64465,0 13.60106,-0.44663 15.9781,-1.43982 z m -2.10879,-43.95455 C 159.83561,228.75291 162,225.43818 162,220.5 162,211.64421 157.06387,209 140.53212,209 L 129,209 l 0,11.5 0,11.5 11.53212,0 c 7.60026,0 12.66993,-0.47541 14.86931,-1.39437 z M 290.15345,288.9261 C 283.38541,287.59513 279.76606,284.9968 277,279.48323 274.60323,274.70577 274.48563,273.60188 274.15207,252.75 L 273.80414,231 271.4735,231 C 268.17536,231 266,228.41667 266,224.5 c 0,-3.95514 2.18131,-6.5 5.57143,-6.5 C 273.93865,218 274,217.79972 274,210.07143 274,200.58566 275.07416,199 281.5,199 c 6.42584,0 7.5,1.58566 7.5,11.07143 l 0,7.92857 9.92857,0 C 310.1874,218 312,218.90135 312,224.5 c 0,5.59865 -1.8126,6.5 -13.07143,6.5 L 289,231 l 0,20.77749 C 289,277.76528 288.65152,277 300.48528,277 310.06014,277 312,278.09504 312,283.5 c 0,5.26603 -2.0207,6.51713 -10.32143,6.39043 -3.94821,-0.0603 -9.13452,-0.49421 -11.52512,-0.96433 z M 126.5,167.386 c -8.52219,-1.23131 -16.62034,-3.74234 -17.52586,-5.43431 -1.23214,-2.30229 -1.24132,-9.9808 -0.0143,-11.92103 0.80037,-1.26554 1.80384,-1.14709 7.23469,0.85397 8.75122,3.22448 23.03662,4.04856 28.14668,1.62367 3.93438,-1.86698 5.31124,-4.77238 4.25534,-8.97944 -0.82501,-3.2871 -2.55279,-4.08765 -16.35597,-7.57837 -18.15394,-4.59101 -23.61563,-9.54988 -23.61563,-21.44153 0,-7.96332 2.54341,-13.01113 8.63963,-17.146723 8.07461,-5.477717 21.86993,-6.557134 35.46141,-2.774683 5.85112,1.628342 7.28142,3.420831 7.25865,9.096706 -0.0262,6.53082 -0.84997,6.96963 -8.41921,4.48482 -10.94652,-3.59349 -25.17885,-2.62854 -27.58659,1.87036 -3.24004,6.05407 0.54284,10.06121 11.83824,12.54007 14.85135,3.25924 22.52969,7.24758 25.58514,13.28961 4.16408,8.2343 2.2162,18.73372 -4.55001,24.52534 -2.27352,1.94606 -6.20786,4.22072 -8.74297,5.0548 -4.89155,1.6094 -16.60737,2.65943 -21.60929,1.93674 z m 70.2175,-0.47758 c -5.89522,-1.38816 -9.08805,-3.41446 -14.01516,-8.89459 -6.38707,-7.10396 -9.1101,-15.47736 -9.1101,-28.01383 0,-12.53647 2.72303,-20.90987 9.1101,-28.01383 5.20495,-5.789158 8.14988,-7.546666 15.1671,-9.051589 6.83488,-1.465821 15.37922,0.189564 20.88056,4.04541 l 4.25,2.978794 0,-14.907964 C 223,67.885945 223.3681,67 230.5,67 c 7.90772,0 7.5,-2.690978 7.5,49.5 0,52.19098 0.40772,49.5 -7.5,49.5 -4.44088,0 -7.5,-1.8562 -7.5,-4.55082 0,-0.96507 -1.33689,-0.47267 -4.25,1.56537 -2.38062,1.6655 -6.61927,3.41585 -9.63649,3.97939 -6.15016,1.14869 -7.1849,1.14156 -12.39601,-0.0855 z m 19.82103,-16.94576 c 8.81439,-8.54325 8.77625,-31.41903 -0.0667,-39.98993 C 213.0869,106.6919 212.50825,106.5 206,106.5 c -6.48268,0 -7.09619,0.2009 -10.4039,3.40686 -4.57977,4.43888 -6.5961,10.59708 -6.5961,20.14555 0,8.87606 1.88544,15.15799 5.78885,19.28732 3.75018,3.96724 5.8247,4.68849 12.47227,4.33628 4.99341,-0.26456 6.2297,-0.7594 9.27741,-3.71335 z m 41.0329,14.46591 C 256.20663,163.06377 256,158.5368 256,130 c 0,-37.123989 -0.23416,-36 7.5,-36 4.54177,0 7.5,1.864244 7.5,4.726416 0,1.432344 0.1706,1.429174 1.78654,-0.03323 6.13689,-5.553816 22.82912,-8.3055 25.79375,-4.252053 1.79004,2.447474 1.84401,9.596347 0.0905,11.994347 -1.08559,1.48465 -1.71491,1.6113 -3.43425,0.69113 -2.92088,-1.56321 -10.62546,-1.40879 -14.70241,0.29467 -1.9579,0.81806 -4.59688,3.22606 -6.21789,5.67364 L 271.5,117.34729 271,140.71221 c -0.413,19.29943 -0.761,23.52954 -2,24.31104 -2.42088,1.52697 -9.68491,1.14899 -11.42857,-0.59468 z"
       id="path2902" />
    <path
       style="fill:#aaaaaa"
       d="M 217.79233,289.59784 C 204.58418,286.04259 196.47927,274.29452 195.3033,257 c -1.7039,-25.05868 13.66065,-41.96101 36.0191,-39.62409 7.60821,0.79521 13.52902,3.47551 18.36896,8.31545 12.1006,12.1006 13.68625,37.72308 3.27138,52.86233 -7.03781,10.23029 -21.41796,14.74592 -35.17041,11.04415 z m 15.89257,-11.66445 c 3.82103,-1.44775 7.08757,-4.64259 9.64511,-9.43339 1.79095,-3.35482 2.13537,-5.69359 2.13537,-14.5 0,-8.80641 -0.34442,-11.14518 -2.13537,-14.5 C 239.55074,232.42063 234.39372,229 227.5,229 c -6.89372,0 -12.05074,3.42063 -15.83001,10.5 -1.79095,3.35482 -2.13537,5.69359 -2.13537,14.5 0,11.30509 1.46418,15.88219 6.61857,20.68993 4.42228,4.12487 11.66763,5.4653 17.53171,3.24346 z M 115.25,287.8718 c -0.96194,-0.97872 -1.25,-11.45227 -1.25,-45.44936 0,-37.73836 0.21523,-44.35618 1.47664,-45.40305 1.09475,-0.90856 6.71974,-1.12313 21.75,-0.82967 18.56826,0.36255 20.71421,0.59153 25.515,2.72261 15.25814,6.7731 19.11084,24.78704 7.6599,35.81509 l -4.38954,4.22743 2.744,1.4333 c 3.49722,1.82673 7.50184,6.13672 9.85999,10.61185 2.91622,5.5342 2.59083,17.17046 -0.65789,23.52669 -2.7317,5.34468 -9.14878,10.46918 -15.78079,12.60211 -5.48426,1.76379 -45.30435,2.39427 -46.92731,0.743 z m 44.42885,-13.44288 c 8.36463,-6.14071 8.36463,-20.71713 0,-26.85784 -2.48238,-1.82238 -4.55383,-2.11236 -17.25,-2.41484 L 128,244.81247 128,261 l 0,16.18753 14.42885,-0.34377 c 12.69617,-0.30248 14.76762,-0.59246 17.25,-2.41484 z m -4.31463,-42.80774 c 10.76777,-4.49906 9.98581,-19.48555 -1.1785,-22.58635 -2.02714,-0.56302 -8.74822,-1.02619 -14.93572,-1.02925 L 128,208 l 0,12.5 0,12.5 12.03212,0 c 7.96301,0 13.14813,-0.4663 15.3321,-1.37882 z m 132.85397,56.20659 c -6.03838,-1.35108 -10.72623,-6.30659 -12.1218,-12.81394 C 275.49337,272.20208 275,260.92371 275,249.95078 L 275,230 l -2.8,0 c -3.63312,0 -5.2,-1.65727 -5.2,-5.5 0,-3.84273 1.56688,-5.5 5.2,-5.5 l 2.8,0 0,-8.3 c 0,-5.12222 0.45944,-8.75944 1.2,-9.5 0.66,-0.66 3.045,-1.2 5.3,-1.2 2.255,0 4.64,0.54 5.3,1.2 0.74056,0.74056 1.2,4.37778 1.2,9.5 l 0,8.3 10.3,0 c 11.35324,0 12.7,0.58324 12.7,5.5 0,4.91676 -1.34676,5.5 -12.7,5.5 l -10.3,0 0,21.54545 c 0,21.54209 3.8e-4,21.54584 2.45455,24 2.18891,2.18892 3.30359,2.45455 10.3,2.45455 8.74383,0 10.24545,0.80611 10.24545,5.5 0,1.705 -0.54,3.64 -1.2,4.3 -1.43142,1.43142 -15.22911,1.44917 -21.58181,0.0278 z M 125.5,166.43139 c -1.1,-0.25853 -4.62475,-0.98075 -7.83278,-1.60493 -3.20803,-0.62419 -6.47053,-1.77263 -7.25,-2.5521 -1.81929,-1.81929 -1.92823,-11.14104 -0.13823,-11.82792 0.70344,-0.26994 3.96594,0.45251 7.25,1.60543 8.61058,3.02291 20.22634,3.69519 25.9668,1.50289 4.80592,-1.8354 6.50421,-3.89246 6.50421,-7.87823 0,-4.91056 -2.8297,-6.67545 -16.53928,-10.31558 -18.30456,-4.86016 -22.66057,-8.24405 -24.09628,-18.71875 -1.18848,-8.67086 2.91092,-16.16206 11.01375,-20.126403 9.00504,-4.405756 27.1985,-4.371661 35.78203,0.06705 2.53537,1.311092 2.83978,1.995403 2.83978,6.383813 0,2.70341 -0.44085,5.18777 -0.97968,5.52078 -0.53882,0.33301 -3.96122,-0.31543 -7.60533,-1.44098 -10.98205,-3.39201 -23.69165,-2.34496 -26.88551,2.21491 -2.19857,3.1389 -1.88456,7.05642 0.76514,9.54568 1.4171,1.3313 6.48957,3.25627 13.2641,5.03364 11.5745,3.0367 17.82473,5.71177 20.65314,8.8395 2.37288,2.62397 4.78924,8.70594 4.78256,12.03769 -0.0261,13.03594 -9.80935,21.04371 -26.62094,21.78978 -4.88041,0.21659 -9.77348,0.18227 -10.87348,-0.0763 z m 71,-0.36646 c -6.90421,-1.68082 -14.24109,-7.796 -17.94347,-14.95561 -2.2985,-4.44482 -4.52697,-14.83618 -4.52697,-21.10932 0,-7.25322 2.47179,-17.47339 5.45866,-22.57011 C 184.52174,98.840834 194.2502,93 203.52257,93 c 5.10299,0 12.46303,2.653696 16.61569,5.990864 L 224,102.09425 224,86.247123 c 0,-10.992207 0.36763,-16.214754 1.2,-17.047123 1.55432,-1.554321 9.04568,-1.554321 10.6,0 0.89863,0.898626 1.2,12.777778 1.2,47.3 0,34.52222 -0.30137,46.40137 -1.2,47.3 -0.66,0.66 -3.045,1.2 -5.3,1.2 -4.65336,0 -6.5,-1.34865 -6.5,-4.74712 0,-2.33228 -0.0244,-2.32749 -3.86174,0.75626 -6.30619,5.06778 -15.50627,7.03551 -23.63826,5.05579 z m 17.40329,-13.14719 c 4.75753,-2.90038 6.83169,-5.643 8.58309,-11.34924 2.94372,-9.59088 1.32382,-23.64063 -3.48638,-30.23826 -6.02913,-8.2695 -19.15955,-8.27036 -26.13967,-0.002 -6.45729,7.6493 -6.39638,29.06336 0.10629,37.36941 4.90456,6.26475 14.43238,8.18509 20.93667,4.21981 z M 258.2,163.8 c -0.88425,-0.88425 -1.2,-9.77778 -1.2,-33.8 0,-24.02222 0.31575,-32.915746 1.2,-33.8 1.55432,-1.554321 9.04568,-1.554321 10.6,0 0.66,0.66 1.2,2.313441 1.2,3.674314 l 0,2.474316 2.25,-2.06146 c 4.68414,-4.291641 10.93376,-6.614651 18.0328,-6.702876 8.02629,-0.09975 8.85371,0.672873 8.47715,7.915706 -0.22869,4.39871 -0.50047,4.9534 -2.25995,4.61247 -1.1,-0.21315 -4.96161,-0.43694 -8.58135,-0.49733 -5.69838,-0.0951 -7.05465,0.25122 -10.10927,2.58109 -6.67253,5.08938 -7.26999,7.61717 -7.63167,32.28842 -0.19646,13.40072 -0.73233,22.4787 -1.37245,23.25 -1.33337,1.60661 -9.01665,1.65396 -10.60526,0.0654 z"
       id="path2900" />
    <path
       style="fill:#909090"
       d="m 215.02717,288.26344 c -2.70179,-0.95358 -6.52778,-3.63361 -9.66271,-6.76855 C 198.67819,274.80862 196,266.94522 196,254 c 0,-12.93197 2.67968,-20.81011 9.34577,-27.47621 C 211.62476,220.24481 217.45925,218 227.5,218 c 20.2074,0 31.5,12.90583 31.5,36 0,17.79937 -7.10322,30.12129 -19.87213,34.4721 -5.74965,1.9591 -18.26581,1.85074 -24.1007,-0.20866 z m 20.97519,-10.79471 c 6.65875,-3.36341 10.32094,-11.74423 10.32674,-23.63242 0.004,-7.58567 -0.35869,-9.38435 -2.91243,-14.45532 -1.60417,-3.1854 -4.0765,-6.62911 -5.49406,-7.65269 -5.67741,-4.0995 -15.16702,-4.10023 -20.84304,-0.002 -1.41877,1.02447 -3.89207,4.46891 -5.49624,7.65431 -2.56455,5.09242 -2.91666,6.85732 -2.91666,14.61901 0,7.76169 0.35211,9.52659 2.91666,14.61901 1.60417,3.1854 4.09693,6.64436 5.53947,7.68659 5.0396,3.64109 13.00257,4.13167 18.87956,1.16313 z M 115,242.43126 l 0,-45.56874 22.25,0.31874 c 21.8308,0.31273 22.3442,0.36852 27.25,2.96065 2.75,1.45306 5.77034,3.49453 6.71186,4.5366 5.05653,5.59656 6.33968,17.48499 2.69893,25.00577 -1.14906,2.37364 -2.38656,4.3319 -2.75,4.35168 -0.36343,0.0198 -1.96222,1.10017 -3.55286,2.40085 l -2.89208,2.36489 2.95286,1.52699 c 8.62258,4.4589 12.75455,12.61835 12.17744,24.04687 -0.32241,6.3847 -0.82733,8.13679 -3.39956,11.79663 C 169.38977,286.21281 163.25085,288 135.8185,288 L 115,288 l 0,-45.56874 z m 43.61483,32.88939 c 5.33625,-2.76857 7.7185,-7.18853 7.7185,-14.32065 0,-7.2004 -2.4869,-11.81062 -7.77307,-14.40971 -4.9462,-2.43193 -27.59105,-3.63955 -30.04579,-1.6023 -2.00877,1.66713 -2.24238,29.8555 -0.26447,31.91112 2.10708,2.18987 25.43939,0.97698 30.36483,-1.57846 z m -1.79299,-43.72852 c 4.33958,-2.24408 6.51149,-5.94388 6.51149,-11.09213 0,-5.44595 -2.40304,-9.20934 -7.16111,-11.21497 -4.96106,-2.0912 -25.53438,-3.05928 -27.65273,-1.30121 -1.99092,1.65232 -2.2205,22.88353 -0.26949,24.9226 1.84685,1.93023 24.29443,0.89764 28.57184,-1.31429 z M 286.5,286.79629 c -4.33278,-1.51042 -8.36223,-5.6411 -9.50075,-9.73944 C 276.4558,275.10058 276.00864,264.0275 276.00558,252.45 275.99957,229.78483 275.82535,229 270.8,229 c -2.65185,0 -2.8,-0.2381 -2.8,-4.5 0,-4.2619 0.14815,-4.5 2.8,-4.5 4.42242,0 5.2,-1.60002 5.2,-10.7 l 0,-8.3 5.5,0 5.5,0 0,8.3 c 0,5.12222 0.45944,8.75944 1.2,9.5 0.77799,0.77799 4.82222,1.2 11.5,1.2 l 10.3,0 0,4.5 0,4.5 -10.37756,0 c -7.87894,0 -10.66934,0.35158 -11.58944,1.46024 -1.69628,2.04389 -1.04813,41.11707 0.73396,44.24601 1.57156,2.75928 6.88833,4.28095 14.98304,4.28817 L 310,279 l 0,4.5 0,4.5 -10.25,-0.079 c -5.6375,-0.0434 -11.6,-0.54956 -13.25,-1.12476 z M 117,164.18178 110.5,162.5 l -0.2999,-5.75 c -0.3478,-6.66816 -0.48722,-6.61021 8.7999,-3.65788 7.69383,2.44583 21.18088,2.96478 25,0.96194 4.69766,-2.46356 6,-4.23694 6,-8.17009 0,-5.25778 -2.55743,-7.29336 -12.34991,-9.82989 -4.48255,-1.16111 -10.08413,-2.61279 -12.44796,-3.22596 -5.48838,-1.42366 -11.66709,-5.89279 -13.77051,-9.96036 -1.18873,-2.29875 -1.53581,-5.018 -1.26108,-9.88007 0.44846,-7.93672 3.37991,-12.63487 10.13739,-16.246921 3.7337,-1.995757 5.61353,-2.238165 17.19207,-2.216957 9.96094,0.01824 13.87665,0.415421 16.75,1.698973 3.61729,1.615877 3.75,1.85392 3.75,6.726185 0,5.44689 -0.61804,5.90715 -5.46013,4.06619 -1.42467,-0.54166 -5.44592,-1.44102 -8.93609,-1.99858 -12.48233,-1.99406 -21.93711,1.91983 -21.93711,9.08108 0,4.8634 3.64095,7.34033 14.5268,9.88258 19.49519,4.55283 25.80653,9.68921 25.80653,21.00222 0,13.95138 -10.03632,21.09523 -29.4315,20.94932 -5.02058,-0.0378 -11.96991,-0.81892 -15.5685,-1.75 z m 75.5,-0.13739 C 180.96039,158.52935 175,146.93405 175,130 c 0,-13.3537 3.9487,-23.84944 11.4056,-30.316349 9.18732,-7.967605 26.87676,-7.611481 34.52877,0.695129 1.80053,1.95456 2.64275,2.31437 3.23469,1.38192 0.44017,-0.69338 0.80721,-8.3482 0.81563,-17.0107 L 225,69 l 5.5,0 5.5,0 0,47.5 0,47.5 -5.5,0 c -5.0325,0 -5.5013,-0.19125 -5.51531,-2.25 -0.029,-4.26255 -1.4141,-4.99053 -4.05032,-2.12878 -5.8384,6.33786 -19.86321,8.51952 -28.43437,4.42317 z m 21.66375,-10.62907 c 6.47126,-3.34642 10.18177,-11.87958 10.18177,-23.41532 0,-8.474 -1.48018,-14.0097 -5.00993,-18.73657 -8.68708,-11.633311 -26.23562,-7.38494 -30.37116,7.35264 -1.73821,6.19432 -1.75837,16.50178 -0.0442,22.60987 3.33764,11.89324 14.96188,17.50625 25.24356,12.18938 z M 258,130 l 0,-34 5.5,0 c 4.75516,0 5.5,0.259773 5.5,1.918213 0,4.859827 1.04169,5.201947 5.14491,1.689749 4.77703,-4.088962 10.52595,-5.833384 17.85815,-5.418785 L 297.5,94.5 l 0.2999,5.75 c 0.32827,6.29371 0.13907,6.45327 -5.6747,4.78591 -5.15856,-1.47946 -12.58494,0.49049 -16.46094,4.36649 -5.18774,5.18775 -5.89304,8.80721 -6.40076,32.8476 l -0.45936,21.75 -5.40207,0 -5.40207,0 0,-34 z"
       id="path2898" />
    <path
       style="fill:#6f6f6f"
       d="M 217.17332,288.51596 C 203.9452,284.38781 196,271.43584 196,254 c 0,-21.91522 12.32418,-36 31.5,-36 10.8108,0 19.31589,4.25385 24.99233,12.5 11.04946,16.05152 7.4214,44.67187 -6.88634,54.32356 -7.34699,4.95613 -19.3771,6.51841 -28.43267,3.6924 z m 17.12442,-9.867 c 16.78752,-7.01428 16.78752,-42.28364 0,-49.29792 C 220.6758,223.65943 208,235.5405 208,254 c 0,18.46735 12.67001,30.34299 26.29774,24.64896 z m -118.80755,8.18556 C 115.20864,286.10053 115.09566,265.7 115.23914,241.5 l 0.26086,-44 18.38559,-0.27308 c 20.78913,-0.30879 28.16132,0.90531 34.11441,5.61818 11.56614,9.15653 10.23255,27.60909 -2.51188,34.75622 -1.83186,1.02732 -1.72945,1.21997 1.52403,2.86698 8.91958,4.51534 12.45187,10.76284 12.45657,22.0317 0.005,11.54793 -3.72045,17.31492 -14.46872,22.39862 -5.31136,2.51216 -6.24596,2.61285 -27.24895,2.9359 -17.44666,0.26834 -21.85022,0.0705 -22.26086,-1 z M 155.5,276.89857 c 7.19535,-1.96122 11.5,-7.87594 11.5,-15.80135 0,-8.59187 -4.47102,-14.40682 -12.40069,-16.12819 C 151.79469,244.36021 144.55,244.00561 138.5,244.18104 l -11,0.31896 -0.27717,15.45801 c -0.15244,8.50191 -0.0541,16.03941 0.21862,16.75 0.63155,1.6458 22.18257,1.79217 28.05855,0.19056 z m 2.5,-45.44586 c 6.60636,-3.86432 7.84267,-14.33731 2.34185,-19.83814 -3.70525,-3.70524 -8.68758,-4.72095 -21.57106,-4.39752 L 127.5,207.5 l -0.28339,11.94178 c -0.15587,6.56798 -0.0406,12.57457 0.2562,13.34797 0.43565,1.13527 3.09114,1.33914 13.7834,1.05821 11.13296,-0.2925 13.80163,-0.67426 16.74379,-2.39525 z m 130.11962,55.41238 c -5.15605,-1.50979 -8.23042,-3.91517 -9.99429,-7.81949 -1.26202,-2.79346 -1.71038,-8.42464 -2.11357,-26.5456 L 275.5,229.5 272,229 c -3.33333,-0.47619 -3.5,-0.69048 -3.5,-4.5 0,-3.80952 0.16667,-4.02381 3.5,-4.5 l 3.5,-0.5 0.5,-9 0.5,-9 5,0 5,0 0.5,9 0.5,9 11,0.5 11,0.5 0,4 0,4 -11,0.5 -11,0.5 -0.30136,20 c -0.31325,20.78905 0.43002,26.65379 3.5605,28.09386 0.95747,0.44045 5.56586,1.04952 10.24086,1.35348 l 8.5,0.55266 0,4 0,4 -9,0.17747 c -4.95,0.0976 -10.52117,-0.26797 -12.38038,-0.81238 z M 119.658,164.51453 c -3.7631,-0.78229 -7.4756,-1.94819 -8.25,-2.59088 -0.86673,-0.71932 -1.408,-3.08843 -1.408,-6.16273 0,-4.70657 0.12958,-4.95646 2.25,-4.33915 16.24125,4.7282 22.8939,5.49893 30.12773,3.49038 8.40197,-2.3329 11.22022,-9.46804 5.85777,-14.83049 -2.19061,-2.19062 -5.13596,-3.31957 -14.18824,-5.43838 -14.17144,-3.31701 -19.09229,-6.03913 -22.08221,-12.21547 -2.80214,-5.78845 -2.28479,-13.84951 1.22274,-19.05207 5.0531,-7.495037 19.91236,-11.19015 33.9184,-8.43463 C 156.93487,96.874784 158,97.623769 158,102.6015 c 0,2.35426 -0.40208,4.52897 -0.89352,4.83269 -0.49144,0.30373 -2.85394,-0.14783 -5.25,-1.00345 -10.73741,-3.83427 -24.94071,-2.6817 -28.8945,2.34472 -4.8796,6.20341 -1.01406,11.98869 9.82503,14.70442 20.10505,5.03731 24.95386,7.65626 27.75509,14.99118 3.70086,9.69056 -0.31285,19.31266 -10.04145,24.07242 -4.61494,2.25789 -7.22137,2.79797 -14.80099,3.06694 -5.40493,0.1918 -12.02189,-0.26024 -16.04166,-1.09589 z m 76.33553,0.55113 c -8.09435,-2.46219 -14.57462,-8.86976 -18.19039,-17.98631 -3.20029,-8.06902 -3.20029,-26.08968 0,-34.1587 4.40493,-11.1063 12.57883,-17.696036 23.12447,-18.642783 7.24815,-0.650712 12.91136,0.952831 18.54072,5.249818 2.50194,1.909775 4.7592,3.472315 5.01614,3.472315 0.25695,0 0.59055,-7.5375 0.74135,-16.75 L 225.5,69.5 l 5,0 5,0 0,47 0,47 -5,0 c -4.91008,0 -5.00564,-0.0584 -5.31336,-3.25 -0.17235,-1.7875 -0.50595,-3.25 -0.74135,-3.25 -0.23539,0 -2.46747,1.55677 -4.96017,3.45949 -2.4927,1.90272 -6.20909,3.92521 -8.25865,4.49443 -4.25338,1.18126 -11.54118,1.23472 -15.23294,0.11174 z M 214.03266,153.75 c 3.57844,-1.8067 5.04858,-3.41819 7.46189,-8.17929 2.71823,-5.36266 3.00545,-6.84393 3.00545,-15.5 0,-8.45651 -0.32576,-10.23409 -2.79823,-15.26896 -4.82429,-9.82407 -14.51124,-13.3459 -23.70177,-8.61712 -3.63407,1.86982 -5.07729,3.46995 -7.5,8.31537 -2.70175,5.40351 -3,6.94444 -3,15.5 0,8.55556 0.29825,10.09649 3,15.5 2.43049,4.86097 3.84704,6.42714 7.46189,8.25 2.45404,1.2375 6.07119,2.25 8.03811,2.25 1.96692,0 5.58162,-1.0125 8.03266,-2.25 z m 44.44297,9.04708 c -0.27719,-0.72233 -0.3851,-15.93467 -0.2398,-33.8052 L 258.5,96.5 l 5,0 c 4.91008,0 5.00564,0.05845 5.31336,3.25 0.38779,4.022 1.18447,4.05438 5.37492,0.218488 5.5609,-5.090389 19.91675,-7.956711 22.75038,-4.542393 0.65096,0.784352 1.04356,3.371852 0.87245,5.750005 -0.26567,3.6924 -0.60321,4.27418 -2.31111,3.98346 -12.70197,-2.16212 -19.01396,0.27609 -23.7779,9.18497 C 269.66749,118.18679 269.46231,120.19591 269,141 l -0.5,22.5 -4.7602,0.30521 c -3.23948,0.2077 -4.9212,-0.11436 -5.26417,-1.00813 z"
       id="path2896" />
    <path
       style="fill:#535353"
       d="m 220.72263,288.98085 c -5.82053,-1.00256 -12.56219,-4.81808 -16.2754,-9.21124 -11.59466,-13.71783 -10.35938,-42.73746 2.29205,-53.84556 6.03979,-5.30301 11.60485,-7.22405 20.9273,-7.22405 6.87184,0 9.09049,0.4357 13.69829,2.69009 9.63784,4.71535 14.64556,12.34889 16.6729,25.4154 1.28327,8.27088 0.0696,18.90277 -2.93267,25.68983 -5.51172,12.46015 -19.31866,19.08023 -34.38247,16.48553 z m 17.55496,-12.24341 c 1.93472,-1.47568 4.57624,-4.8328 5.87004,-7.46025 C 246.16479,265.18075 246.5,263.00374 246.5,254 c 0,-9.00374 -0.33521,-11.18075 -2.35237,-15.27719 -1.2938,-2.62745 -3.95877,-6.00245 -5.92216,-7.5 C 235.10842,228.84532 233.74817,228.5 227.5,228.5 c -6.30128,0 -7.59525,0.33527 -10.83707,2.80793 C 210.1104,236.30579 208.5,240.78252 208.5,254 c 0,9.86645 0.30578,12.06819 2.15268,15.5 4.33063,8.04695 8.85866,10.61611 17.97728,10.20014 4.84064,-0.22082 6.86983,-0.84397 9.64763,-2.9627 z M 116.25,286.89021 c -0.96078,-0.99169 -1.25,-11.2805 -1.25,-44.46777 0,-37.26351 0.20657,-43.34899 1.50813,-44.42919 2.29199,-1.90218 38.50047,-0.78633 44.30794,1.36546 10.07378,3.73255 14.5483,9.97337 14.47927,20.19492 -0.0237,3.50273 -0.71143,7.35033 -1.63219,9.13088 -1.62096,3.13459 -7.06627,8.31549 -8.73988,8.31549 -1.81661,0 -0.88274,2.87809 1.14244,3.52085 3.33401,1.05818 8.88986,6.47174 11.11192,10.82734 2.71049,5.313 2.92532,14.54369 0.48622,20.89122 -2.25002,5.85543 -7.86088,10.84014 -14.91791,13.25313 -6.88672,2.35475 -44.47402,3.48463 -46.49594,1.39767 z M 159.03811,275.75 c 5.57726,-2.81245 7.95878,-7.22612 7.95878,-14.75 0,-7.52388 -2.38152,-11.93755 -7.95878,-14.75 -3.98359,-2.00881 -5.93993,-2.25 -18.25,-2.25 L 127,244 l 0,17 0,17 13.78811,0 c 12.31007,0 14.26641,-0.24119 18.25,-2.25 z m -2.67389,-43.12882 C 161.5804,230.44172 164,226.6008 164,220.5 c 0,-3.85111 -0.57165,-5.95702 -2.1679,-7.98632 C 158.25901,207.97123 154.41895,207 140.03212,207 L 127,207 l 0,13.5 0,13.5 13.03212,0 c 8.81284,0 14.10052,-0.44641 16.3321,-1.37882 z m 134.19963,54.31747 c -6.09875,-1.02068 -9.46847,-3.39591 -12.0634,-8.50318 -1.78916,-3.52137 -2.0359,-6.32927 -2.34498,-26.68547 l -0.34543,-22.75 -2.70502,0 C 269.8626,229 268,227.35815 268,224.5 c 0,-2.88268 1.8689,-4.5 5.2,-4.5 l 2.8,0 0,-8.3 c 0,-9.22596 0.75768,-10.7 5.5,-10.7 4.74232,0 5.5,1.47404 5.5,10.7 l 0,8.3 10.3,0 c 10.82601,0 12.7,0.66401 12.7,4.5 0,3.83599 -1.87399,4.5 -12.7,4.5 l -10.3,0 0,22.54545 0,22.54546 2.45455,2.45454 c 2.18891,2.18892 3.30359,2.45455 10.3,2.45455 8.27676,0 10.24545,0.86469 10.24545,4.5 0,1.155 -0.54,2.64 -1.2,3.3 -1.34828,1.34828 -10.58861,1.41854 -18.23615,0.13865 z M 129,165.5244 c -0.825,-0.1893 -4.77312,-0.87749 -8.77361,-1.52932 -4.00048,-0.65183 -7.93798,-1.84953 -8.75,-2.66154 -1.40481,-1.40481 -2.08577,-8.39083 -0.9305,-9.54609 0.30023,-0.30024 3.91738,0.52476 8.03809,1.83333 8.14907,2.58781 20.08757,3.21211 25.10092,1.31261 4.58061,-1.73555 7.3151,-4.92266 7.3151,-8.52592 0,-6.90706 -1.93134,-8.23521 -18.17087,-12.49583 -5.9147,-1.55179 -12.08117,-3.50774 -13.70327,-4.34656 -10.74303,-5.55543 -11.80548,-22.47483 -1.87691,-29.889621 6.20244,-4.632067 15.6071,-6.226998 27.25425,-4.622035 10.99911,1.515663 12.92196,2.557699 13.30764,7.211716 0.39492,4.76538 -1.00119,5.34975 -7.89208,3.30337 -7.08678,-2.10454 -19.06573,-2.06061 -23.21842,0.0852 -4.31987,2.23215 -5.63081,4.17987 -5.66854,8.42201 -0.0481,5.41261 2.87712,7.44426 15.51282,10.77393 13.6015,3.58417 17.24114,5.13354 20.61868,8.77722 5.24794,5.66145 5.73969,15.97696 1.06276,22.29359 -2.55668,3.45303 -7.7224,6.87252 -12.1271,8.02764 -4.16241,1.09157 -14.8982,2.08129 -17.09896,1.57633 z m 69,-0.42382 c -15.57665,-3.30686 -25.2087,-21.82166 -22.03224,-42.35058 1.96732,-12.71447 7.46287,-21.37823 16.47775,-25.977284 8.32019,-4.244641 22.44653,-1.967145 28.4788,4.591444 1.33338,1.44971 2.79588,2.63584 3.25,2.63584 C 224.62844,104 225,96.665 225,87.7 c 0,-11.344444 0.36483,-16.664826 1.2,-17.5 1.55009,-1.550085 7.04991,-1.550085 8.6,0 0.89786,0.897857 1.2,12.555556 1.2,46.3 0,33.74444 -0.30214,45.40214 -1.2,46.3 -0.66,0.66 -2.595,1.2 -4.3,1.2 -3.84273,0 -5.5,-1.56688 -5.5,-5.2 0,-3.49102 -0.97952,-3.53048 -4.07569,-0.16416 -4.68965,5.09882 -15.28455,8.08662 -22.92431,6.46474 z m 17.07832,-11.37438 c 6.99229,-4.7121 9.91053,-11.69848 9.91053,-23.7262 0,-12.02772 -2.91824,-19.0141 -9.91053,-23.7262 -4.71587,-3.17803 -13.44077,-3.17803 -18.15664,0 -6.99229,4.7121 -9.91053,11.69848 -9.91053,23.7262 0,8.69975 1.11009,13.40024 4.2731,18.09383 C 195.00305,153.61216 199.44753,156 206,156 c 4.27726,0 6.5483,-0.56882 9.07832,-2.2738 z M 259.2,162.8 c -0.8827,-0.8827 -1.2,-9.55556 -1.2,-32.8 0,-23.24444 0.3173,-31.9173 1.2,-32.8 1.55009,-1.550085 7.04991,-1.550085 8.6,0 0.66,0.66 1.2,2.46 1.2,4 0,3.53421 0.4332,3.50484 4.79526,-0.3251 4.84593,-4.254781 9.17247,-5.890649 16.2739,-6.153168 6.87585,-0.25418 8.10419,0.748416 7.69183,6.278268 L 297.5,104.5 290,104.21539 c -9.94357,-0.37735 -14.31803,1.95104 -18.25,9.71392 -2.74182,5.41318 -2.75,5.49212 -2.75,26.55 C 269,163.42552 268.86567,164 263.5,164 c -1.705,0 -3.64,-0.54 -4.3,-1.2 z"
       id="path2894" />
    <path
       style="fill:#2e2e2e"
       d="m 216.16516,287.0923 c -6.98337,-2.41174 -13.49882,-8.80002 -16.37958,-16.05989 -3.19531,-8.05259 -3.17353,-26.06437 0.0413,-34.17528 5.68355,-14.33926 21.65466,-21.13128 38.24159,-16.26297 7.19078,2.11052 14.85043,9.74781 17.54845,17.49724 2.62453,7.53832 2.62453,24.27888 0,31.8172 -2.69802,7.74943 -10.35767,15.38672 -17.54845,17.49724 -7.11556,2.08844 -15.28692,1.97147 -21.90334,-0.31354 z m 21.8942,-9.51289 c 10.42053,-6.89597 13.10013,-29.45694 4.95701,-41.7356 -4.05225,-6.11022 -8.15402,-8.30045 -15.5894,-8.32432 -8.25941,-0.0265 -13.1469,3.17283 -17.07847,11.17952 -2.52435,5.14086 -2.8485,6.88206 -2.8485,15.30099 0,8.38993 0.32855,10.16906 2.81174,15.22587 2.83641,5.7761 6.50305,9.2389 11.47962,10.84146 4.40526,1.41858 12.15609,0.23322 16.268,-2.48792 z M 116,242.58453 116,198 l 18.45078,0 c 20.99644,0 26.73714,0.90471 32.5751,5.1337 10.68505,7.74021 10.52585,26.60267 -0.27318,32.3663 -4.54419,2.42531 -4.72841,3.85321 -0.71177,5.51695 10.37138,4.29597 15.35382,16.68857 11.85364,29.48305 -1.36422,4.98675 -8.83938,12.47215 -14.39457,14.4143 -2.77136,0.9689 -10.68074,1.52996 -25.75,1.8266 l -21.75,0.42816 0,-44.58453 z m 43.59007,33.57121 c 5.85318,-3.35479 7.88784,-7.26419 7.88784,-15.15574 0,-7.95469 -2.24848,-12.27131 -7.97791,-15.31597 -3.35856,-1.78477 -6.12932,-2.18625 -17.27849,-2.50363 -9.47474,-0.26972 -13.70002,-0.0282 -14.75,0.84324 -1.97418,1.63843 -2.17194,31.86091 -0.22151,33.85318 0.92522,0.94507 4.75766,1.1919 14.75,0.95 11.98397,-0.29012 13.95931,-0.59008 17.59007,-2.67108 z m -1.57308,-43.71162 c 4.70726,-2.71941 7.21482,-7.73956 6.64752,-13.30836 -0.98321,-9.65149 -7.4741,-13.02172 -25.21451,-13.09199 -7.31481,-0.029 -11.45563,0.36186 -12.25,1.15623 -1.6981,1.6981 -1.65458,24.93124 0.05,26.689 0.93175,0.96083 4.5641,1.19713 14.26699,0.92814 10.78779,-0.29906 13.61346,-0.70545 16.5,-2.37302 z m 129.37848,53.47479 c -4.1673,-1.20904 -8.14729,-5.36534 -9.37697,-9.79235 C 277.46446,274.13195 277.00864,263.0275 277.00558,251.45 276.99957,228.78483 276.82535,228 271.8,228 c -2.53333,0 -2.8,-0.33333 -2.8,-3.5 0,-3.16667 0.26667,-3.5 2.8,-3.5 4.42242,0 5.2,-1.60002 5.2,-10.7 l 0,-8.3 4.5,0 4.5,0 0,8.3 c 0,5.12222 0.45944,8.75944 1.2,9.5 0.77799,0.77799 4.82222,1.2 11.5,1.2 l 10.3,0 0,3.5 0,3.5 -10.3,0 c -6.67778,0 -10.72201,0.42201 -11.5,1.2 -1.54588,1.54588 -1.65124,38.63479 -0.12536,44.12988 1.36351,4.91037 5.29274,6.67012 14.89324,6.67012 l 7.03212,0 0,3.5 0,3.5 -9.25,-0.0902 c -5.0875,-0.0496 -10.64704,-0.49551 -12.35453,-0.9909 z M 119.25915,163.53928 c -3.43247,-0.77547 -6.69497,-1.6906 -7.25,-2.03363 C 110.99084,160.87631 110.54486,152 111.53155,152 c 0.29235,0 3.18486,0.89384 6.42781,1.98631 12.41646,4.1828 24.91302,3.60803 30.75197,-1.41443 2.16246,-1.86007 2.74322,-3.2289 2.74322,-6.46575 0,-6.52836 -2.73799,-8.44246 -17.78846,-12.43575 C 115.20216,128.77142 111.5,125.48609 111.5,114 c 0,-5.38734 0.44749,-7.45728 2.09195,-9.67667 2.79996,-3.77888 7.81112,-7.082585 12.80909,-8.444638 5.36588,-1.462318 22.04723,-0.553886 26.87575,1.463599 C 156.70567,98.77497 157,99.218187 157,102.94897 157,105.17704 156.83158,107 156.62573,107 c -0.20585,0 -2.29557,-0.67787 -4.64383,-1.50639 -6.25804,-2.20796 -16.7013,-2.92892 -21.9819,-1.51753 -7.68659,2.05446 -11.33146,7.39172 -9.08426,13.3023 1.33074,3.50012 5.33993,5.42154 18.53714,8.88397 6.06982,1.59248 12.65569,3.96726 14.63529,5.2773 6.96989,4.61245 8.94848,14.3884 4.58484,22.65307 -1.81155,3.43105 -3.61006,5.06502 -8.11957,7.37674 -5.06806,2.59804 -6.99715,3.00137 -15.42301,3.2246 -5.63507,0.1493 -12.21956,-0.32978 -15.87128,-1.15478 z m 73.16999,-0.85686 C 186.36396,159.78261 181.74476,154.4773 178.77484,147 c -3.17168,-7.98527 -3.15667,-26.04895 0.0283,-34.07935 4.88304,-12.31177 14.1148,-18.553005 26.16723,-17.690657 7.35971,0.526584 12.03694,2.559715 16.08525,6.992047 1.51419,1.65783 3.24612,2.70951 3.84873,2.33708 C 225.62879,104.11139 226,98.142278 226,86.940983 L 226,70 l 4.5,0 4.5,0 0,46.5 0,46.5 -4.5,0 c -4.46149,0 -4.5,-0.0294 -4.5,-3.44098 0,-4.74155 -1.68576,-5.34879 -4.94438,-1.78106 -4.18211,4.57883 -8.76834,6.50043 -16.55562,6.93671 -5.86202,0.32841 -7.82436,-0.002 -12.07086,-2.03225 z M 213.5,155.11927 c 4.93824,-2.26765 6.79129,-4.30595 9.68738,-10.65581 1.83614,-4.02585 2.26838,-6.75802 2.28819,-14.46346 0.0221,-8.58199 -0.26547,-10.0798 -2.97557,-15.5 -7.7388,-15.477597 -25.2612,-15.477597 -33,0 -2.7101,5.4202 -2.99764,6.91801 -2.97557,15.5 0.0253,9.82747 1.99701,16.54965 6.26376,21.3547 2.46023,2.77061 9.13708,5.60138 13.21181,5.60138 1.925,0 5.3,-0.82657 7.5,-1.83681 z M 259,130 l 0,-33 4.5,0 c 4.46149,0 4.5,0.02945 4.5,3.44098 0,1.89254 0.46997,3.73145 1.04438,4.08645 0.57442,0.35501 2.9899,-1.14784 5.36775,-3.33967 4.66665,-4.301564 11.98566,-6.67594 18.58787,-6.030124 3.42501,0.335029 3.50664,0.446921 3.8101,5.222414 0.27748,4.3666 0.11966,4.80481 -1.5,4.16493 -9.30755,-3.6772 -19.58461,0.43033 -24.59674,9.83081 -2.04,3.82612 -2.22353,5.7324 -2.53931,26.37421 l -0.34039,22.25 -4.41683,0 -4.41683,0 0,-33 z"
       id="path2892" />
    <path
       style="fill:#040404"
       d="M 214.5,285.61269 C 208.32313,282.68761 203.81068,278.03881 200.80122,271.5 198.78899,267.12791 198.5,264.93023 198.5,254 c 0,-10.93023 0.28899,-13.12791 2.30122,-17.5 5.1328,-11.15231 13.76454,-16.48046 26.69878,-16.48046 12.93424,0 21.56598,5.32815 26.69878,16.48046 2.01223,4.37209 2.30122,6.56977 2.30122,17.5 0,10.93023 -0.28899,13.12791 -2.30122,17.5 -5.1328,11.15231 -13.76454,16.48046 -26.69878,16.48046 -6.33974,0 -9.03766,-0.49139 -13,-2.36777 z m 22.28984,-6.5127 c 7.57234,-3.87785 11.32705,-12.19805 11.32705,-25.09999 0,-17.39481 -7.24835,-26.98323 -20.40673,-26.99488 -13.75462,-0.0122 -20.82705,9.15472 -20.82705,26.99488 0,12.84336 3.6207,21.10293 10.94738,24.97321 4.9329,2.60578 14.00019,2.66641 18.95935,0.12678 z M 117,242.5 l 0,-43.5 19.46249,0 c 17.02333,0 20.13338,0.25101 24.81567,2.00288 C 170.41334,204.42079 174,209.7289 174,219.8307 c 0,7.29566 -2.43371,11.90777 -8.00453,15.1693 -2.34855,1.375 -4.3208,2.906 -4.38278,3.40222 -0.062,0.49622 2.13731,2.11117 4.88731,3.58877 7.48572,4.02216 10.8428,9.38392 11.33556,18.10459 0.49766,8.80738 -1.51094,14.47498 -6.8344,19.28441 C 164.78253,284.99814 159.60941,286 136.8185,286 L 117,286 l 0,-43.5 z m 42.67134,34.36485 C 165.79303,273.71269 168,269.50875 168,261 c 0,-8.56254 -2.19859,-12.70839 -8.44509,-15.92476 -4.28817,-2.20801 -5.94537,-2.43148 -18.53953,-2.5 -7.60674,-0.0414 -14.20954,0.29846 -14.6729,0.75521 -1.01701,1.00248 -1.75119,27.6774 -0.88836,32.27668 0.3437,1.8321 1.36318,3.48599 2.32862,3.77769 0.94449,0.28538 7.47246,0.36722 14.50658,0.18187 11.0853,-0.2921 13.40125,-0.65208 17.38202,-2.70184 z m -2.08706,-43.47187 c 4.84996,-2.30145 7.4073,-6.68077 7.41198,-12.69264 0.005,-6.40627 -2.15647,-10.22865 -7.26687,-12.85093 -3.67308,-1.88475 -5.96001,-2.18199 -17.3866,-2.25981 -7.23647,-0.0493 -13.53647,0.28433 -14,0.74135 -1.04977,1.03503 -1.75387,20.66426 -0.90377,25.1957 0.35602,1.89774 1.3678,3.56473 2.34372,3.86148 0.94449,0.28719 7.21456,0.34567 13.93348,0.12997 8.86385,-0.28458 13.21835,-0.86775 15.86806,-2.12512 z m 127.82183,50.70384 c -6.64503,-3.01786 -7.4035,-6.17318 -7.41976,-30.86706 -0.008,-11.40137 -0.2821,-21.73117 -0.61019,-22.95512 -0.41526,-1.54912 -1.62662,-2.4186 -3.98635,-2.86129 C 270.71518,226.91159 270,226.29693 270,224.5 c 0,-1.79693 0.71518,-2.41159 3.38981,-2.91335 4.01214,-0.75268 4.57706,-2.20741 4.59654,-11.83665 L 278,203 l 3.39738,0 3.39739,0 0.35261,8.41724 c 0.19394,4.62948 0.72655,8.79198 1.18357,9.25 0.45702,0.45802 5.51952,0.98622 11.25,1.17378 C 307.71164,222.17261 308,222.2462 308,224.5 c 0,2.2538 -0.28836,2.32739 -10.41905,2.65898 -5.73048,0.18756 -10.79298,0.71692 -11.25,1.17634 -1.04425,1.04974 -1.10257,42.19386 -0.0651,45.90203 1.15589,4.13133 4.54088,5.73324 13.58932,6.431 7.70619,0.59426 8.1448,0.75473 8.1448,2.97987 0,2.30113 -0.19923,2.35131 -9.25,2.32982 -6.84543,-0.0163 -10.31422,-0.50528 -13.34389,-1.88122 z M 121.5,163.3081 c -9.64711,-2.21835 -9.5,-2.12007 -9.5,-6.34664 0,-2.1788 0.1125,-3.95565 0.25,-3.94856 0.1375,0.007 3.175,0.93056 6.75,2.05214 7.41373,2.32589 19.85108,2.79927 25.4033,0.96687 4.9124,-1.62124 7.5967,-5.32875 7.5967,-10.49245 0,-6.73627 -3.24406,-8.99684 -18,-12.54301 -16.39794,-3.94077 -21.04092,-7.44481 -21.78709,-16.44257 -0.2491,-3.00383 -0.16741,-6.59904 0.18154,-7.98935 1.04719,-4.17236 6.30292,-9.273411 11.31373,-10.980766 5.49563,-1.872547 20.52468,-2.012027 27.29182,-0.253287 4.26846,1.109346 4.51638,1.36933 4.81831,5.052723 0.25606,3.12382 0.0238,3.77021 -1.18746,3.30539 -7.91818,-3.03849 -20.54768,-3.86123 -26.93138,-1.75442 -4.68234,1.54531 -7.69947,5.37241 -7.69947,9.76643 0,7.12861 2.45119,8.86448 18.08646,12.80836 11.8516,2.98947 18.22753,6.26375 20.40797,10.48027 1.96079,3.79175 1.92566,12.32324 -0.068,16.52465 -1.85613,3.91151 -7.32859,7.89006 -12.92639,9.39768 -3.89885,1.05005 -20.00105,1.31609 -24,0.39654 z m 70.75165,-1.41258 c -5.19814,-2.57303 -8.76729,-6.66351 -12.12454,-13.89552 -2.06861,-4.45609 -2.6283,-7.42087 -2.94879,-15.62044 -0.45479,-11.63563 1.00238,-18.14304 5.728,-25.58 4.47275,-7.039002 9.84208,-10.163461 18.28565,-10.640565 8.45631,-0.477825 14.41128,1.532451 19.02302,6.421785 6.10648,6.47403 6.75233,4.9164 6.77136,-16.33078 L 227,71 l 3.5,0 3.5,0 0,45.5 0,45.5 -3.37219,0 c -3.16095,0 -3.41226,-0.25057 -4.01182,-4 -0.77313,-4.83491 -2.33148,-5.0706 -6.036,-0.91291 -6.13405,6.88442 -19.53798,9.15959 -28.32834,4.80843 z m 25.00634,-8.14313 c 12.06366,-9.20141 12.07567,-38.29422 0.0196,-47.48983 -2.72981,-2.08213 -4.91766,-2.77221 -9.76836,-3.08107 -7.79674,-0.49646 -12.58508,1.56008 -16.6284,7.14172 -3.75084,5.17788 -5.03872,10.20722 -5.03872,19.67679 0,9.46105 1.2878,14.49879 5.02522,19.65815 4.11935,5.6866 8.20332,7.47142 16.24302,7.09871 5.35368,-0.2482 7.28282,-0.81937 10.14764,-3.00447 z M 260,130 l 0,-32 3.37219,0 c 3.16095,0 3.41226,0.250566 4.01182,4 0.77354,4.83744 2.25777,5.04736 6.1789,0.8739 4.20631,-4.476994 9.92733,-6.826119 16.68709,-6.851938 L 296,96 l 6.2e-4,3.75 6.2e-4,3.75 -5.05856,-0.35042 c -7.4628,-0.51697 -11.55223,0.56871 -15.63085,4.14974 -6.77976,5.95264 -7.62817,9.44733 -8.12084,33.45068 l -0.43616,21.25 -3.37742,0 -3.37741,0 0,-32 z"
       id="path2890" />
  </g>
</svg>
